<?xml version="1.0" standalone="no"?>
<!DOCTYPE svg PUBLIC "-//W3C//DTD SVG 20010904//EN"
 "http://www.w3.org/TR/2001/REC-SVG-20010904/DTD/svg10.dtd">
<svg version="1.0" xmlns="http://www.w3.org/2000/svg"
 width="300.000000pt" height="300.000000pt" viewBox="0 0 300.000000 300.000000"
 preserveAspectRatio="xMidYMid meet">
<metadata>
Created by potrace 1.11, written by Peter Selinger 2001-2013
</metadata>
<g transform="translate(0.000000,300.000000) scale(0.100000,-0.100000)"
fill="#000000" stroke="none">
<path d="M1299 2453 c0 -16 -2 -37 -4 -48 -3 -11 -6 -37 -7 -57 -2 -21 -5 -38
-8 -38 -3 0 -4 -34 -4 -75 l2 -75 -52 -14 c-28 -8 -82 -22 -120 -32 -108 -27
-203 -79 -271 -148 -33 -34 -66 -72 -72 -86 -17 -34 -35 -82 -39 -100 -2 -8
-6 -31 -9 -50 -20 -103 6 -246 64 -354 15 -28 43 -80 61 -116 43 -83 140 -229
198 -300 131 -159 260 -247 377 -257 l60 -5 1 -59 c0 -49 -2 -59 -17 -59 -36
0 -156 -44 -205 -75 -82 -53 -124 -141 -103 -219 9 -35 8 -40 -13 -54 -62 -44
-138 -160 -138 -211 0 -20 6 -21 86 -21 l86 0 44 47 c29 31 47 43 51 35 2 -7
10 -18 17 -25 7 -7 18 -22 25 -35 l12 -22 297 0 297 0 33 50 c17 27 32 54 32
60 0 13 16 13 43 -1 25 -14 52 -44 72 -81 15 -27 17 -28 109 -28 l93 0 -3 32
c-9 75 -110 228 -151 228 -7 0 -13 4 -13 10 0 5 -11 12 -24 16 -21 5 -23 9
-16 35 40 137 -97 258 -308 273 -40 3 -77 8 -81 10 -7 5 -11 25 -26 136 -3 21
5 31 43 55 43 27 205 181 242 230 37 49 112 169 140 223 223 439 100 799 -302
891 -88 20 -177 30 -293 32 l-71 2 -33 101 c-60 182 -100 251 -102 179z"/>
</g>
</svg>
